PathFileType	4	(X/Y/Z)	./resultDataOpenSim/trcMotMarkerGrf/sub10/qtm-01-02.trc
DataRate	CameraRate	NumFrames	NumMarkers	Units	OrigDataRate	OrigDataStartFrame	OrigNumFrames
250.000000	250.000000	7	24	m	250.000000	1	454
Frame#	Time	L.Toe.Tip			R.Toe.Tip			L.Ankle.Lat			R.Ankle.Lat			L.Ankle.Med			R.Ankle.Med			L.Heel			R.Heel			L.Knee.Lat			R.Knee.Lat			L.Knee.Med			R.Knee.Med			L.Thigh.Upper			R.Thigh.Upper			L.ASIS			R.ASIS			V.Sacral			L.Acromium			R.Acromium			C7			L.Elbow			R.Elbow			L.Wrist.Lat			R.Wrist.Lat
		X1	Y1	Z1	X2	Y2	Z2	X3	Y3	Z3	X4	Y4	Z4	X5	Y5	Z5	X6	Y6	Z6	X7	Y7	Z7	X8	Y8	Z8	X9	Y9	Z9	X10	Y10	Z10	X11	Y11	Z11	X12	Y12	Z12	X13	Y13	Z13	X14	Y14	Z14	X15	Y15	Z15	X16	Y16	Z16	X17	Y17	Z17	X18	Y18	Z18	X19	Y19	Z19	X20	Y20	Z20	X21	Y21	Z21	X22	Y22	Z22	X23	Y23	Z23	X24	Y24	Z24

1	0	-1.5779	0.040296836	-0.061436806	-1.2246424	0.059214606	0.066970281	-1.7129509	0.067903106	-0.069108092	-1.362567	0.087570768	0.081808272	-1.6955795	0.089153648	0.01155884	-1.3269752	0.11315042	0.0048311853	NaN	NaN	NaN	-1.4049448	0.066733068	0.02201241	-1.602693	0.43987533	-0.11389886	-1.2707628	0.47181884	0.12841109	-1.5934122	0.41720339	0.0070300731	-1.2444185	0.48855317	0.002767736	-1.494255	0.81687358	-0.18172919	-1.4259616	0.84939337	0.19489643	-1.407224	0.91580382	-0.13037942	-1.3679881	0.93109227	0.11075104	-1.5827811	0.96196122	0.025082226	-1.3826978	1.3962551	-0.1563387	-1.413271	1.3953752	0.16563697	-1.4750102	1.4342006	-0.006122758	-1.5012676	1.0705594	-0.22224041	-1.601451	1.104318	0.19898879	-1.3480732	0.87448792	-0.25349382	-1.5315259	0.8772602	0.27354062
2	0.004	-1.5779356	0.040171778	-0.061284437	-1.2053351	0.059466222	0.066106436	-1.7128501	0.06809652	-0.068743015	-1.3438224	0.084276202	0.080885738	-1.695539	0.089227904	0.011931068	-1.3092757	0.11095507	0.0040097603	NaN	NaN	NaN	-1.3857809	0.062302568	0.020735737	-1.6005185	0.43971619	-0.11406456	-1.2634615	0.47136402	0.12829728	-1.5927415	0.41681412	0.007345958	-1.2375544	0.48825206	0.002695894	-1.490245	0.81558464	-0.18155794	-1.4205695	0.84826225	0.19473125	-1.4033541	0.91443711	-0.13072193	-1.3629371	0.92993165	0.11045327	-1.5779037	0.96043043	0.025507629	-1.3774675	1.3947626	-0.15661035	-1.4083642	1.3937681	0.16547457	-1.4698185	1.4328665	-0.0063990128	-1.4947949	1.0682796	-0.22235296	-1.5977664	1.1032039	0.19896744	-1.3385939	0.87452233	-0.25371506	-1.5295427	0.87633435	0.27458729
3	0.008	-1.5781249	0.040007458	-0.061016477	-1.1860045	0.05980019	0.065211229	-1.7127468	0.068298828	-0.068413416	-1.325204	0.081089048	0.079998155	-1.695542	0.08930629	0.012313478	-1.2915353	0.10889655	0.003224117	NaN	NaN	NaN	-1.3666098	0.05808568	0.019536448	-1.5985442	0.43952214	-0.11412615	-1.2562299	0.47078531	0.12824859	-1.5920163	0.41639276	0.0077101731	-1.2307671	0.48784651	0.0026518914	-1.4862534	0.81431129	-0.18146628	-1.4150181	0.84711451	0.19463391	-1.3994132	0.91304441	-0.13105644	-1.3578144	0.92873285	0.11020088	-1.5730332	0.95886159	0.025941055	-1.3722578	1.3932411	-0.1569011	-1.4033427	1.3921152	0.16529569	-1.4646119	1.431511	-0.0066412703	-1.4883287	1.0659618	-0.22254021	-1.5938715	1.1021255	0.19887321	-1.3291386	0.87456233	-0.25390703	-1.5285212	0.87527495	0.2754668
4	0.012	-1.5783753	0.039835718	-0.060723263	-1.166712	0.060220413	0.064272219	-1.7126251	0.068508459	-0.068133187	-1.3066771	0.078122799	0.079176327	-1.6955634	0.089399621	0.01271206	-1.2737541	0.10706021	0.0024995581	NaN	NaN	NaN	-1.3474225	0.054211077	0.018467904	-1.5969582	0.43928648	-0.11401977	-1.249109	0.47003436	0.12827687	-1.591016	0.41591311	0.0080894222	-1.2240987	0.48727653	0.0026528116	-1.4822579	0.81304622	-0.18145212	-1.409285	0.84592808	0.19460624	-1.3953082	0.91162302	-0.13136974	-1.3525892	0.92748398	0.1100142	-1.5681825	0.9572094	0.026360886	-1.3670465	1.3916703	-0.15720628	-1.3981683	1.3904096	0.16508755	-1.4593803	1.4301183	-0.0068866994	-1.4818542	1.0635853	-0.22280807	-1.5897284	1.1010653	0.19871029	-1.3196963	0.87461204	-0.25404635	-1.5283546	0.87407572	0.27618143
5	0.016	-1.5785339	0.039698894	-0.060530792	-1.1476044	0.060683297	0.063314125	-1.7124743	0.068713236	-0.067876692	-1.2881531	0.075465064	0.078441374	-1.6955212	0.089523609	0.013125239	-1.2560062	0.10546896	0.0018509388	NaN	NaN	NaN	-1.3282675	0.050709818	0.017556755	-1.5957897	0.439027	-0.11375156	-1.24215	0.46911388	0.12835197	-1.5895777	0.41536775	0.0084196662	-1.2175678	0.48653428	0.0027047582	-1.4782275	0.81178273	-0.18146852	-1.4034535	0.84467426	0.19461668	-1.3910404	0.91018054	-0.1316521	-1.3473136	0.92618393	0.10988189	-1.5633721	0.95546477	0.026759802	-1.3618134	1.3900471	-0.15751259	-1.3929275	1.3886727	0.16486798	-1.4541203	1.4286898	-0.0071573739	-1.4753643	1.0611558	-0.22311483	-1.5854323	1.0999762	0.19853043	-1.3102647	0.87467993	-0.25412485	-1.5281334	0.87283691	0.2768593
6	0.02	-1.5785809	0.039598249	-0.060442796	-1.1287554	0.061185897	0.062374971	-1.7123229	0.068902724	-0.067592563	-1.2695988	0.073151816	0.077813009	-1.6953574	0.089684615	0.013546155	-1.2383572	0.10411399	0.0012808945	NaN	NaN	NaN	-1.3092056	0.047557298	0.016793103	-1.5947608	0.43874406	-0.11338407	-1.2353881	0.46803179	0.12844287	-1.5876963	0.41478178	0.0086663957	-1.2111726	0.48563975	0.002798877	-1.4741493	0.81052778	-0.18149316	-1.3975861	0.84333651	0.19465551	-1.3867013	0.90871287	-0.13190338	-1.3420479	0.92482247	0.10977716	-1.5586047	0.95366494	0.027177643	-1.3565481	1.388374	-0.15781246	-1.3877084	1.3869238	0.16467797	-1.4488268	1.4272389	-0.0074288529	-1.4688577	1.0586877	-0.22343517	-1.5810717	1.0988348	0.198376	-1.3008502	0.87477824	-0.25414659	-1.527268	0.87163971	0.27759034
7	0.024	-1.5785741	0.039519665	-0.06040399	-1.1101492	0.061781619	0.061473336	-1.7122177	0.069088891	-0.067243538	-1.2510641	0.07119436	0.077298845	-1.6950946	0.089872068	0.013964606	-1.220839	0.1029912	0.00078859379	NaN	NaN	NaN	-1.2902876	0.044735734	0.016152154	-1.5934452	0.43839447	-0.11299237	-1.2287988	0.46680499	0.12853528	-1.5854123	0.41420345	0.0088263028	-1.2049026	0.48461564	0.002911694	-1.4700293	0.80929279	-0.18153546	-1.391702	0.84192175	0.19472594	-1.3823564	0.90721747	-0.13212727	-1.3367866	0.92339468	0.10968769	-1.5538541	0.95183397	0.027641136	-1.3512261	1.386652	-0.15809562	-1.3824783	1.3851644	0.16453051	-1.4435017	1.4257789	-0.0076843979	-1.4623308	1.056196	-0.2237584	-1.5766855	1.097649	0.19826657	-1.2914517	0.87491072	-0.25411301	-1.5258719	0.87049298	0.27836984
